0
SECTION
2
HEADER
9
$INSUNITS
70
4
9
$ACADVER
1
AC1014
9
$HANDSEED
5
FFFF
0
ENDSEC
0
SECTION
2
TABLES
0
TABLE
2
VPORT
5
8
100
AcDbSymbolTable
0
ENDTAB
0
TABLE
2
LTYPE
5
5
100
AcDbSymbolTable
0
LTYPE
5
14
100
AcDbSymbolTableRecord
100
AcDbLinetypeTableRecord
2
BYBLOCK
70
0
0
LTYPE
5
15
100
AcDbSymbolTableRecord
100
AcDbLinetypeTableRecord
2
BYLAYER
70
0
0
ENDTAB
0
TABLE
2
LAYER
5
2
100
AcDbSymbolTable
70
2
0
LAYER
5
50
100
AcDbSymbolTableRecord
100
AcDbLayerTableRecord
2
0
70
0
6
CONTINUOUS
0
ENDTAB
0
TABLE
2
STYLE
5
3
100
AcDbSymbolTable
70
1
0
STYLE
5
11
100
AcDbSymbolTableRecord
100
AcDbTextStyleTableRecord
2
STANDARD
70
0
0
ENDTAB
0
TABLE
2
VIEW
5
6
100
AcDbSymbolTable
70
0
0
ENDTAB
0
TABLE
2
UCS
5
7
100
AcDbSymbolTable
70
0
0
ENDTAB
0
TABLE
2
APPID
5
9
100
AcDbSymbolTable
70
2
0
APPID
5
12
100
AcDbSymbolTableRecord
100
AcDbRegAppTableRecord
2
ACAD
70
0
0
ENDTAB
0
TABLE
2
DIMSTYLE
5
A
100
AcDbSymbolTable
70
1
0
ENDTAB
0
TABLE
2
BLOCK_RECORD
5
1
100
AcDbSymbolTable
70
1
0
BLOCK_RECORD
5
1F
100
AcDbSymbolTableRecord
100
AcDbBlockTableRecord
2
*MODEL_SPACE
0
BLOCK_RECORD
5
1B
100
AcDbSymbolTableRecord
100
AcDbBlockTableRecord
2
*PAPER_SPACE
0
ENDTAB
0
ENDSEC
0
SECTION
2
BLOCKS
0
BLOCK
5
20
100
AcDbEntity
100
AcDbBlockBegin
2
*MODEL_SPACE
0
ENDBLK
5
21
100
AcDbEntity
100
AcDbBlockEnd
0
BLOCK
5
1C
100
AcDbEntity
100
AcDbBlockBegin
2
*PAPER_SPACE
0
ENDBLK
5
1D
100
AcDbEntity
100
AcDbBlockEnd
0
ENDSEC
0
SECTION
2
ENTITIES
0
LINE
5
100
100
AcDbEntity
8
0
100
AcDbLine
10
50.447000000000003
20
-1.3729999999999942
30
0
11
50.447000000000003
21
-2.5729999999999942
31
0
0
LINE
5
101
100
AcDbEntity
8
0
100
AcDbLine
10
50.447000000000003
20
-2.5729999999999942
30
0
11
47.878000000000007
21
-2.5729999999999937
31
0
0
LINE
5
102
100
AcDbEntity
8
0
100
AcDbLine
10
47.878000000000007
20
-2.5729999999999937
30
0
11
47.878
21
-4.4729999999999936
31
0
0
LINE
5
103
100
AcDbEntity
8
0
100
AcDbLine
10
47.878
20
-4.4729999999999936
30
0
11
74.10899999999998
21
-4.4729999999999936
31
0
0
LINE
5
104
100
AcDbEntity
8
0
100
AcDbLine
10
74.10899999999998
20
-4.4729999999999936
30
0
11
74.10899999999998
21
-2.5729999999999937
31
0
0
LINE
5
105
100
AcDbEntity
8
0
100
AcDbLine
10
74.10899999999998
20
-2.5729999999999937
30
0
11
71.539999999999978
21
-2.5729999999999942
31
0
0
LINE
5
106
100
AcDbEntity
8
0
100
AcDbLine
10
71.539999999999978
20
-2.5729999999999942
30
0
11
71.539999999999978
21
-1.3729999999999942
31
0
0
LWPOLYLINE
5
107
100
AcDbEntity
8
0
100
AcDbPolyline
90
22
70
1
43
0.0
10
71.539999999999978
20
-1.3729999999999942
10
72.899499999999989
20
-1.3729999999999942
10
80.999999999999972
20
-1.3289227161533028
10
80.999999999999972
20
-13.750538273691115
10
78.547895819931711
20
-13.750538273691115
10
78.547895819931696
20
-9.2619999999999738
10
77.274000000000001
20
-5.7619999999999916
10
44.712999999999994
20
-5.7619999999999916
10
43.439104180068284
20
-9.2619999999999738
10
43.439104180068284
20
-13.750538273691115
10
38.53489581993172
20
-13.750538273691115
10
38.534895819931712
20
-9.2619999999999738
10
37.26100000000001
20
-5.7619999999999916
10
4.7000000000000064
20
-5.7619999999999916
10
3.4261041800683047
20
-9.2619999999999738
10
3.4261041800683008
20
-13.750538273691115
10
0.97400000000001263
20
-13.750538273691115
10
0.97400000000001263
20
-1.3289227161533024
10
9.0745000000000164
20
-1.3729999999999942
10
10.434000000000019
20
-1.3729999999999942
10
31.526999999999994
20
-1.3729999999999942
10
50.447000000000003
20
-1.3729999999999942
0
LINE
5
108
100
AcDbEntity
8
0
100
AcDbLine
10
10.434000000000019
20
-1.3729999999999942
30
0
11
10.434000000000019
21
-2.5729999999999942
31
0
0
LINE
5
109
100
AcDbEntity
8
0
100
AcDbLine
10
10.434000000000019
20
-2.5729999999999942
30
0
11
7.8650000000000153
21
-2.5729999999999937
31
0
0
LINE
5
110
100
AcDbEntity
8
0
100
AcDbLine
10
7.8650000000000153
20
-2.5729999999999937
30
0
11
7.8650000000000109
21
-4.4729999999999936
31
0
0
LINE
5
111
100
AcDbEntity
8
0
100
AcDbLine
10
7.8650000000000109
20
-4.4729999999999936
30
0
11
34.096000000000004
21
-4.4729999999999936
31
0
0
LINE
5
112
100
AcDbEntity
8
0
100
AcDbLine
10
34.096000000000004
20
-4.4729999999999936
30
0
11
34.095999999999997
21
-2.5729999999999937
31
0
0
LINE
5
113
100
AcDbEntity
8
0
100
AcDbLine
10
34.095999999999997
20
-2.5729999999999937
30
0
11
31.526999999999994
21
-2.5729999999999942
31
0
0
LINE
5
114
100
AcDbEntity
8
0
100
AcDbLine
10
31.526999999999994
20
-2.5729999999999942
30
0
11
31.526999999999994
21
-1.3729999999999942
31
0
0
LINE
5
115
100
AcDbEntity
8
0
100
AcDbLine
10
40.987000000000002
20
-1.3729999999999942
30
0
11
40.987000000000002
21
-13.750538273691115
31
0
0
ENDSEC
0
SECTION
2
OBJECTS
0
DICTIONARY
5
C
100
AcDbDictionary
3
ACAD_GROUP
350
D
3
ACAD_MLINESTYLE
350
17
0
DICTIONARY
5
D
100
AcDbDictionary
0
DICTIONARY
5
1A
330
C
100
AcDbDictionary
0
DICTIONARY
5
17
100
AcDbDictionary
0
ENDSEC
0
EOF
